<svg xmlns="http://www.w3.org/2000/svg" width="760" height="560" viewBox="0 0 760 560">
<rect width="760" height="560" fill="#0d1117"/>
<text x="24" y="34" fill="#e6edf3" font-size="18" font-weight="bold">Iterations to ALLOW — oracle findings vs self-critique</text>
<text x="24" y="54" fill="#8b949e" font-size="12">performer: claude-haiku-4-5-20251001 · same cases, cap 3 attempts · deterministic gates as the oracle</text>
<rect x="80" y="81.42857142857142" width="90" height="128.57142857142858" fill="#3fb950" rx="4"/><text x="125.0" y="73.42857142857142" text-anchor="middle" fill="#e6edf3" font-size="15" font-weight="bold">1.43</text><text x="125.0" y="232" text-anchor="middle" fill="#e6edf3" font-size="13">oracle feedback</text><text x="125.0" y="248" text-anchor="middle" fill="#8b949e" font-size="11">7/9 converged</text>
<rect x="230" y="30.0" width="90" height="180.0" fill="#f85149" rx="4"/><text x="275.0" y="22.0" text-anchor="middle" fill="#e6edf3" font-size="15" font-weight="bold">2.00</text><text x="275.0" y="232" text-anchor="middle" fill="#e6edf3" font-size="13">self-critique</text><text x="275.0" y="248" text-anchor="middle" fill="#8b949e" font-size="11">5/9 converged</text>
<text x="420" y="120" fill="#e6edf3" font-size="26" font-weight="bold">ORACLE 7/9 · 1.43</text>
<text x="420" y="150" fill="#8b949e" font-size="26" font-weight="bold">SELF 5/9 · 2.00</text>
<text x="420" y="176" fill="#3fb950" font-size="14">Δ +2 cases converged · 0.57 fewer attempts</text>
<text x="24" y="290" fill="#e6edf3" font-size="14" font-weight="bold">What self-critique kept missing</text>
<text x="420" y="300" fill="#8b949e" font-size="12">COV-F15: 19 repeat violation(s) under self-critique</text><text x="420" y="318" fill="#8b949e" font-size="12">TOY-CITE: sentence 2 lacks a line citation [L<n>]: 3 repeat violation(s) under self-critique</text>
<text x="24" y="412" fill="#e6edf3" font-size="14" font-weight="bold">Per-case attempts to ALLOW (green) / not converged (red)</text><text x="24" y="442" fill="#3fb950" font-size="12" font-weight="bold">oracle</text><rect x="240" y="428" width="36" height="20" rx="4" fill="#3fb950" opacity="0.85"/><text x="258" y="442" text-anchor="middle" fill="#0d1117" font-size="11" font-weight="bold">1</text><rect x="282" y="428" width="36" height="20" rx="4" fill="#3fb950" opacity="0.85"/><text x="300" y="442" text-anchor="middle" fill="#0d1117" font-size="11" font-weight="bold">2</text><rect x="324" y="428" width="36" height="20" rx="4" fill="#3fb950" opacity="0.85"/><text x="342" y="442" text-anchor="middle" fill="#0d1117" font-size="11" font-weight="bold">2</text><rect x="366" y="428" width="36" height="20" rx="4" fill="#f85149" opacity="0.85"/><text x="384" y="442" text-anchor="middle" fill="#0d1117" font-size="11" font-weight="bold">3</text><rect x="408" y="428" width="36" height="20" rx="4" fill="#f85149" opacity="0.85"/><text x="426" y="442" text-anchor="middle" fill="#0d1117" font-size="11" font-weight="bold">3</text><rect x="450" y="428" width="36" height="20" rx="4" fill="#3fb950" opacity="0.85"/><text x="468" y="442" text-anchor="middle" fill="#0d1117" font-size="11" font-weight="bold">1</text><rect x="492" y="428" width="36" height="20" rx="4" fill="#3fb950" opacity="0.85"/><text x="510" y="442" text-anchor="middle" fill="#0d1117" font-size="11" font-weight="bold">1</text><rect x="534" y="428" width="36" height="20" rx="4" fill="#3fb950" opacity="0.85"/><text x="552" y="442" text-anchor="middle" fill="#0d1117" font-size="11" font-weight="bold">1</text><rect x="576" y="428" width="36" height="20" rx="4" fill="#3fb950" opacity="0.85"/><text x="594" y="442" text-anchor="middle" fill="#0d1117" font-size="11" font-weight="bold">2</text><text x="24" y="468" fill="#f85149" font-size="12" font-weight="bold">self</text><rect x="240" y="454" width="36" height="20" rx="4" fill="#f85149" opacity="0.85"/><text x="258" y="468" text-anchor="middle" fill="#0d1117" font-size="11" font-weight="bold">3</text><rect x="282" y="454" width="36" height="20" rx="4" fill="#f85149" opacity="0.85"/><text x="300" y="468" text-anchor="middle" fill="#0d1117" font-size="11" font-weight="bold">3</text><rect x="324" y="454" width="36" height="20" rx="4" fill="#3fb950" opacity="0.85"/><text x="342" y="468" text-anchor="middle" fill="#0d1117" font-size="11" font-weight="bold">1</text><rect x="366" y="454" width="36" height="20" rx="4" fill="#f85149" opacity="0.85"/><text x="384" y="468" text-anchor="middle" fill="#0d1117" font-size="11" font-weight="bold">3</text><rect x="408" y="454" width="36" height="20" rx="4" fill="#f85149" opacity="0.85"/><text x="426" y="468" text-anchor="middle" fill="#0d1117" font-size="11" font-weight="bold">3</text><rect x="450" y="454" width="36" height="20" rx="4" fill="#3fb950" opacity="0.85"/><text x="468" y="468" text-anchor="middle" fill="#0d1117" font-size="11" font-weight="bold">3</text><rect x="492" y="454" width="36" height="20" rx="4" fill="#3fb950" opacity="0.85"/><text x="510" y="468" text-anchor="middle" fill="#0d1117" font-size="11" font-weight="bold">2</text><rect x="534" y="454" width="36" height="20" rx="4" fill="#3fb950" opacity="0.85"/><text x="552" y="468" text-anchor="middle" fill="#0d1117" font-size="11" font-weight="bold">2</text><rect x="576" y="454" width="36" height="20" rx="4" fill="#3fb950" opacity="0.85"/><text x="594" y="468" text-anchor="middle" fill="#0d1117" font-size="11" font-weight="bold">2</text>
<text x="24" y="494" fill="#8b949e" font-size="10.5">Literature: Huang et al. ICLR 2024 (2310.01798) — GSM8K 95.5→89.0% intrinsic self-correction, →97.5% with oracle feedback</text><text x="24" y="508" fill="#8b949e" font-size="10.5">Chen et al. 2026 (2606.05976) — external-attributed errors fixed 53–87% vs 0–17% self-attributed · CRITIC ICLR 2024 (2305.11738)</text><text x="24" y="522" fill="#8b949e" font-size="10.5">Kamoi et al. TACL 2024 (2406.01297) — self-correction requires reliable external feedback · this chart: N=9 demonstration</text>
<text x="24" y="544" fill="#8b949e" font-size="11">mean attempts among converged runs · trace: evaluation/exhibit/trace.jsonl · rerun: scripts/loop_exhibit.py --live</text>
</svg>